HIERARCHY
ROOT Hips
{
  OFFSET 1.44925e-005 102.336 -0.101585
  CHANNELS 6 Xposition Yposition Zposition Zrotation Xrotation Yrotation
  JOINT LeftUpLeg
  {
    OFFSET 8.9458 -8.66707 0.101652
    CHANNELS 3 Zrotation Xrotation Yrotation
    JOINT LeftLeg
    {
      OFFSET 0 -44.4227 1.3727
      CHANNELS 3 Zrotation Xrotation Yrotation
      JOINT LeftFoot
      {
        OFFSET -0.253549 -42.0924 -1.46059
        CHANNELS 3 Zrotation Xrotation Yrotation
        JOINT LeftToes
        {
          OFFSET -0.04 -4.41509 8.4991
          CHANNELS 3 Zrotation Xrotation Yrotation
          End Site
          {
            OFFSET 0.08 -0.047448 9.77979
          }
        }
      }
    }
  }
  JOINT Spine
  {
    OFFSET 0 11.8905 0
    CHANNELS 3 Zrotation Xrotation Yrotation
    JOINT Spine1
    {
      OFFSET 0 25.6574 0.127663
      CHANNELS 3 Zrotation Xrotation Yrotation
      JOINT RightShoulder
      {
        OFFSET -8.99 -0.362252 -0.22
        CHANNELS 3 Zrotation Xrotation Yrotation
        JOINT RightArm
        {
          OFFSET -10.2827 -0.00338 0.322123
          CHANNELS 3 Zrotation Xrotation Yrotation
          JOINT RightForeArm
          {
            OFFSET -26.364 0.099144 -1.42434
            CHANNELS 3 Zrotation Xrotation Yrotation
            JOINT RightHand
            {
              OFFSET -22.0324 0.085362 1.02216
              CHANNELS 3 Zrotation Xrotation Yrotation
              End Site
              {
                OFFSET -13.3284 -0.6 1.50291
              }
            }
          }
        }
      }
      JOINT LeftShoulder1
      {
        OFFSET 8.99 -0.362252 -0.22
        CHANNELS 3 Zrotation Xrotation Yrotation
        JOINT LeftArm
        {
          OFFSET 10.2827 -0.00337999 0.322123
          CHANNELS 3 Zrotation Xrotation Yrotation
          JOINT LeftForeArm
          {
            OFFSET 26.2597 0.099144 -1.42434
            CHANNELS 3 Zrotation Xrotation Yrotation
            JOINT LeftHand
            {
              OFFSET 22.0902 0.085362 1.02216
              CHANNELS 3 Zrotation Xrotation Yrotation
              End Site
              {
                OFFSET 13.419 -0.6 1.50291
              }
            }
          }
        }
      }
      JOINT Head
      {
        OFFSET 0 8.73416 0.011341
        CHANNELS 3 Zrotation Xrotation Yrotation
        End Site
        {
          OFFSET -0.29 12.7742 2.51395
        }
      }
    }
  }
  JOINT RightUpLeg
  {
    OFFSET -8.9458 -8.66707 0.101652
    CHANNELS 3 Zrotation Xrotation Yrotation
    JOINT RightLeg
    {
      OFFSET 0 -44.4227 1.3727
      CHANNELS 3 Zrotation Xrotation Yrotation
      JOINT RightFoot
      {
        OFFSET 0.253549 -42.0924 -1.46059
        CHANNELS 3 Zrotation Xrotation Yrotation
        JOINT RightToes
        {
          OFFSET 0.04 -4.41509 8.4991
          CHANNELS 3 Zrotation Xrotation Yrotation
          End Site
          {
            OFFSET -0.08 -0.137448 9.77979
          }
        }
      }
    }
  }
}
MOTION
Frames:	19
Frame Time:	0.0333333
57.9256 96.7539 -0.253103 -9.25003 3.79362 -92.2104 1.97836 15.6909 12.4563 1.34689 37.5118 19.6345 -18.4911 -19.7687 -1.95056 -1.31556e-009 8.75248e-006 -1.48226e-008 17.8371 11.621 4.52006 -12.6191 1.23017 8.8861 7.31152 0.233972 -3.37644 56.9731 -19.3797 94.4673 9.15034 59.3857 -2.10872 -11.9103 8.96755 4.28138 -34.5097 2.61008 -2.92379 -35.1441 -18.833 4.20783 0.506964 65.4107 -15.248 5.82328 9.61819 -0.917488 -2.39717 -4.11123 -17.6796 5.21358 -16.5057 -4.3888 1.73555 22.4012 -19.1141 -1.44643 -5.98718 -0.15535 0.0462048 0.000530889 0.662642 
54.2989 96.4256 -0.69479 -8.6187 5.42105 -94.859 5.75762 8.22819 13.0486 1.72146 53.2059 21.9631 -13.1017 -7.13819 0.00303957 -1.31556e-009 8.75248e-006 -1.48226e-008 23.6519 12.8731 5.44168 -16.7827 1.06337 11.6636 4.25084 0.243989 -3.28748 60.9228 -17.7067 100.434 18.9318 64.0403 -17.5847 -6.9366 9.42079 3.68267 -34.8719 2.64637 -2.95436 -27.202 -19.1544 17.4615 0.784721 68.5518 -14.9369 5.82328 9.61819 -0.917488 -2.59075 -5.12596 -19.5057 8.80804 -17.1456 -3.07869 0.351796 26.6363 -17.2836 -4.29193 -7.08421 -0.145633 0.0462048 0.000530889 0.662642 
51.2198 95.8945 -1.12295 -9.14603 7.56862 -93.5247 9.44481 -1.08562 9.75469 2.67667 70.6167 20.2965 -6.62327 5.76467 0.77494 -1.31556e-009 8.75248e-006 -1.48226e-008 26.9707 14.3161 5.07475 -16.9063 1.80762 12.6363 3.04632 0.208857 -3.57472 63.2384 -18.2834 102.91 15.9114 64.8108 -15.1522 -4.31624 9.62922 3.5628 -33.6034 2.53784 -2.88964 -28.6323 -8.14694 28.0794 7.08755 58.6444 -22.8108 5.82328 9.61819 -0.917488 -2.86602 -7.07532 -21.6476 10.9073 -16.0862 -3.1279 0.475281 30.0273 -18.4759 -3.51353 -10.9563 -0.290691 0.0462048 0.000530889 0.662642 
48.1901 95.8081 -1.49675 -10.2476 8.7924 -90.7922 10.5759 -10.0758 5.21735 12.1844 86.0159 6.39106 -4.62406 9.86984 0.643403 -1.31556e-009 8.75248e-006 -1.48226e-008 28.0081 15.2708 4.53542 -14.4514 2.50662 12.5439 3.46419 0.116534 -4.37359 60.5878 -20.887 102.219 14.869 60.4792 -13.8519 -6.35518 9.45451 3.88462 -31.4428 2.35781 -2.7801 -36.536 1.51906 37.5355 12.1848 44.8915 -30.6647 5.82328 9.61819 -0.917488 -3.5321 -8.35171 -23.7928 11.6474 -13.4385 -3.63606 1.77971 31.0964 -20.7596 -1.84066 -13.8769 -0.317846 0.0462048 0.000530889 0.662642 
44.9294 96.4844 -1.81853 -10.9057 8.76861 -89.5157 9.03237 -17.9985 2.55471 174.265 81.6654 -159.192 -3.62237 5.00599 0.357134 -1.31556e-009 8.75248e-006 -1.48226e-008 27.072 15.7008 4.7886 -11.9283 2.65382 12.4291 3.51611 0.00301154 -5.36834 57.9724 -22.8074 100.428 14.4587 56.4446 -13.1648 -8.80712 9.23282 4.29219 -29.9694 2.23319 -2.68956 -34.3902 -3.37908 45.4623 19.8464 44.7499 -42.8457 5.82328 9.61819 -0.917488 -4.54728 -8.51786 -25.0026 11.4291 -10.1408 -3.17961 2.77819 30.156 -22.1689 -0.731876 -15.0986 -0.270342 0.0462048 0.000530889 0.662642 
41.6288 97.3326 -2.06701 -11.0644 7.91642 -89.5958 6.45873 -25.1729 1.73643 177.1 73.2342 -161.35 -2.78295 -2.21493 0.129236 -1.31556e-009 8.75248e-006 -1.48226e-008 25.5405 15.7133 5.34308 -10.6808 2.89974 12.5251 2.61232 -0.0765315 -6.22639 60.5763 -23.1139 99.1632 11.774 52.6219 -11.045 -7.73293 9.32529 4.2094 -29.5994 2.19086 -2.63403 -29.7228 -8.91724 51.1109 28.8879 43.7834 -57.5416 5.82328 9.61819 -0.917488 -5.43101 -8.48503 -24.9931 10.4427 -7.00447 -3.20881 2.95162 28.9236 -21.4393 0.610697 -16.3512 -0.181067 0.0462048 0.000530889 0.662642 
38.3238 98.0228 -2.28607 -11.2492 6.78477 -89.8105 3.63764 -31.4246 1.07292 177.528 68.9053 -158.572 -2.25551 -7.17072 0.0370977 -1.31556e-009 8.75248e-006 -1.48226e-008 24.1615 15.5524 5.65673 -10.5601 3.29055 12.5376 3.11032 -0.100684 -6.34883 65.5078 -24.111 97.4213 6.58079 44.4642 -4.03433 -4.9644 9.58425 3.37163 -29.6708 2.1792 -2.58936 -26.4674 -13.0822 52.9948 37.0304 39.5994 -72.133 5.82328 9.61819 -0.917488 -5.7899 -8.56448 -24.2838 8.94027 -3.62188 -4.24685 3.12769 27.4859 -19.622 2.07033 -17.7887 -0.0534783 0.0462048 0.000530889 0.662642 
34.9901 98.6647 -2.51572 -11.4373 5.6059 -89.9315 0.930471 -36.2646 -0.118632 177.315 68.9855 -156.309 -2.45347 -10.844 -0.0226223 -1.31556e-009 8.75248e-006 -1.48226e-008 22.7021 15.3064 5.84087 -10.7419 3.24263 12.2994 6.42676 -0.0551093 -5.45043 65.595 -27.2342 92.8418 4.37201 29.0675 6.68125 -3.80189 9.7141 1.78029 -29.8652 2.17919 -2.5569 -25.7728 -16.279 50.6146 41.831 33.1488 -84.121 5.82328 9.61819 -0.917488 -5.76181 -8.0031 -23.1897 7.36105 0.0707632 -5.78525 3.40496 25.3351 -17.5943 2.48288 -18.5817 -0.00321885 0.0462048 0.000530889 0.662642 
31.6665 99.2321 -2.75942 -11.4153 4.27223 -90.13 -1.29489 -39.6505 -1.37078 176.625 73.255 -155.836 -4.00046 -14.2706 -0.164961 -1.31556e-009 8.75248e-006 -1.48226e-008 20.7849 14.8746 5.8733 -10.6179 2.76283 11.6392 10.6411 0.101835 -4.14293 58.6112 -29.6876 83.6076 9.12514 9.16611 18.8936 -3.60461 9.76506 -0.0783513 -30.3589 2.21382 -2.57074 -27.1506 -19.4724 44.2192 43.4445 26.4601 -92.9374 5.82328 9.61819 -0.917488 -5.80124 -6.70457 -21.5045 5.83654 3.49513 -7.03072 3.46295 23.0583 -15.8698 2.46323 -19.3388 0.0080461 0.0462048 0.000530889 0.662642 
28.3785 99.585 -3.02829 -11.3055 2.71655 -90.1665 -3.01558 -41.5138 -2.25388 174.026 81.0996 -153.914 -5.90959 -16.4404 -0.376025 -1.31556e-009 8.75248e-006 -1.48226e-008 18.3686 14.3103 5.45986 -10.1972 2.28211 10.4056 14.5213 0.351755 -2.87703 57.3987 -31.004 75.5978 20.1397 -1.13227 33.3184 -2.01102 9.85765 -2.71354 -31.0841 2.2702 -2.60503 -30.4152 -23.004 33.1172 43.3535 21.0926 -99.001 5.82328 9.61819 -0.917488 -6.0523 -5.59522 -19.1791 4.27938 6.613 -7.94084 3.37653 21.1411 -14.6441 3.24335 -20.6496 0.119768 0.0462048 0.000530889 0.662642 
25.1782 99.7488 -3.33075 -11.2253 1.3358 -89.9947 -3.91104 -41.4164 -2.43874 22.2072 87.5556 -2.07797 -7.22248 -17.4317 -0.539496 -1.31556e-009 8.75248e-006 -1.48226e-008 15.9159 13.9012 4.65809 -9.80053 1.59445 8.84574 19.2692 0.727372 -1.53653 57.2886 -32.8889 67.2435 33.9148 -1.4689 47.3144 0.59437 9.87224 -6.20498 -31.7367 2.3139 -2.61561 -35.5542 -24.9864 16.3799 42.7763 18.1571 -102.178 5.82328 9.61819 -0.917488 -6.09732 -4.87655 -16.5797 3.07265 9.69338 -8.62286 3.39537 19.1902 -14.1505 4.0067 -21.6171 0.236459 0.0462048 0.000530889 0.662642 
22.0377 99.8142 -3.66461 -11.0514 0.536258 -89.8893 -3.55503 -39.2484 -1.70678 3.35987 73.4618 16.2563 -8.2913 -17.563 -0.641388 -1.31556e-009 8.75248e-006 -1.48226e-008 13.7403 13.6873 3.85397 -9.45779 0.275285 7.36611 25.1094 1.2057 -0.344094 53.002 -34.5098 55.5725 45.0097 4.01017 58.5551 3.02402 9.7568 -9.10935 -32.1923 2.34779 -2.63138 -40.3106 -23.3651 -4.52604 42.6694 18.6669 -101.734 5.82328 9.61819 -0.917488 -5.50245 -3.7044 -13.993 2.68675 12.7257 -8.84568 3.41863 16.7954 -14.4546 3.77735 -21.8729 0.215204 0.0462048 0.000530889 0.662642 
18.8032 99.7376 -4.01229 -10.7281 0.173635 -89.8139 -2.78511 -35.4487 -0.701843 1.63462 56.9726 16.6016 -8.91366 -16.2143 -0.597696 -1.31556e-009 8.75248e-006 -1.48226e-008 11.1236 13.2866 3.10338 -8.54198 -0.995563 5.86483 30.5215 1.58128 0.231521 47.0502 -34.9415 41.2619 52.8073 11.0582 66.2272 4.40071 9.6209 -11.1035 -32.0899 2.34754 -2.6483 -42.3747 -19.5131 -26.0739 42.7844 21.9585 -98.0129 5.82328 9.61819 -0.917488 -4.39798 -2.15766 -11.2655 2.86284 15.837 -8.66785 3.31521 13.9121 -15.1547 3.83888 -22.3245 0.237264 0.0462048 0.000530889 0.662642 
15.34 99.2952 -4.30041 -10.4401 -0.127463 -89.392 -2.34162 -30.6928 -0.0633999 1.11002 40.6742 16.8572 -8.94827 -14.2759 -0.45552 -1.31556e-009 8.75248e-006 -1.48226e-008 7.33307 12.3749 2.06229 -5.89333 -1.08556 3.82818 34.4101 1.74358 0.26852 41.3307 -33.4317 26.0433 59.9061 16.5177 70.2252 4.14624 9.55559 -12.8286 -30.3193 2.18578 -2.50177 -43.147 -16.2516 -45.3398 42.3653 26.4139 -92.569 5.82328 9.61819 -0.917488 -3.3858 -1.62825 -7.93828 3.32562 18.9276 -8.46879 3.27399 11.6246 -16.0336 5.18494 -23.4734 0.462705 0.0462048 0.000530889 0.662642 
11.5756 98.461 -4.46384 -10.2705 0.189011 -88.6103 -1.80261 -25.9155 1.06986 1.04052 28.0687 18.4517 -8.98751 -13.0758 -0.366743 -1.31556e-009 8.75248e-006 -1.48226e-008 2.39186 11.1472 0.585061 -0.838283 -0.282824 0.987656 36.3346 1.77146 0.157034 36.4698 -29.5901 11.1656 65.6396 18.9341 70.9247 3.4901 9.54681 -14.0882 -25.8173 1.72884 -1.88769 -44.5567 -14.3235 -61.3022 40.7907 32.6165 -84.2504 5.82328 9.61819 -0.917488 -2.8286 -2.47058 -3.6731 4.20976 21.5001 -8.3825 3.41538 11.1411 -17.2196 6.19807 -24.7924 0.671923 0.0462048 0.000530889 0.662642 
7.4641 97.5026 -4.51935 -9.99424 0.652859 -87.5651 -1.47283 -22.313 2.98529 0.815728 21.7296 20.0076 -8.2493 -11.4592 -0.226063 -1.31556e-009 8.75248e-006 -1.48226e-008 -3.63553 10.1343 -1.23748 5.85982 -0.00387826 -2.49731 35.9204 1.74189 0.124192 33.394 -23.682 -3.39462 68.658 18.061 69.9204 3.46651 9.51866 -14.8808 -18.7927 1.02846 -0.531628 -44.5834 -12.6587 -74.7959 33.807 41.228 -66.5452 5.82328 9.61819 -0.917488 -2.45583 -3.03249 1.1364 5.16071 23.4965 -8.34771 3.78358 11.9737 -18.5507 6.40714 -26.054 0.774244 0.0462048 0.000530889 0.662642 
3.02376 96.5092 -4.4647 -9.58239 0.441545 -85.6705 -2.61204 -20.6942 2.95913 0.569736 21.8173 20.7727 -4.64376 -8.27003 -0.00691151 -1.31556e-009 8.75248e-006 -1.48226e-008 -10.4396 9.89492 -3.35093 12.5537 -0.827098 -6.24649 33.5954 1.6607 0.135474 32.9901 -17.9211 -17.5326 69.8655 14.691 68.1792 3.46105 9.49147 -15.5961 -10.7638 0.383217 1.37936 -45.7562 -11.7178 -87.0175 18.0343 50.603 -36.7567 5.82328 9.61819 -0.917488 -1.85441 -2.19184 5.27857 5.19248 24.9521 -10.6257 4.28734 14.5576 -17.1484 8.93737 -27.5824 1.32789 0.0462048 0.000530889 0.662642 
-1.46408 95.5644 -4.23151 -9.42024 -0.698467 -83.2055 -5.76672 -20.4971 -0.622858 1.17873 26.0139 21.0961 1.64456 -5.54398 -0.00174142 -1.31556e-009 8.75248e-006 -1.48226e-008 -16.7 10.8845 -5.2736 17.8324 -1.97669 -9.56553 31.134 1.55036 0.080419 33.5284 -15.642 -29.9921 68.8764 10.1961 66.2972 3.59428 9.46269 -16.0269 -3.06042 -0.000225566 3.52666 -62.3716 -8.31388 -100.575 -12.5004 67.7954 2.56689 5.82328 9.61819 -0.917488 -0.851935 -1.32273 7.76234 3.71353 24.5641 -19.2583 2.71327 22.2659 -8.09782 14.9749 -27.6022 2.40665 0.0462048 0.000530889 0.662642 
-5.56968 95.0343 -3.80879 -9.74426 -2.01606 -82.1532 -9.16223 -20.0118 -6.50513 1.2944 30.9457 24.0074 6.24564 -6.19675 -0.0535223 -1.31556e-009 8.75248e-006 -1.48226e-008 -20.8882 12.6535 -6.00925 21.0167 -2.62065 -11.4147 30.0741 1.48217 -0.00371463 31.9815 -17.8683 -39.2693 65.613 6.28872 64.5355 3.84719 9.4546 -15.6629 3.78479 -0.12531 5.97166 -66.7912 -3.75163 -107.042 -26.5174 67.1917 22.6809 5.82328 9.61819 -0.917488 0.23519 -2.24685 8.96088 0.0466272 20.5802 -22.1643 -1.17458 36.763 -1.89747 19.9034 -21.9929 2.3082 0.0462048 0.000530889 0.662642 
